<mxfile host="Electron" agent="Mozilla/5.0 (Windows NT 10.0; Win64; x64) AppleWebKit/537.36 (KHTML, like Gecko) draw.io/28.2.5 Chrome/138.0.7204.251 Electron/37.6.1 Safari/537.36" version="28.2.5" pages="3">
  <diagram name="ERD" id="HkAoffOcETfvurxb7iPW">
    <mxGraphModel dx="1426" dy="841" grid="1" gridSize="10" guides="1" tooltips="1" connect="1" arrows="1" fold="1" page="1" pageScale="1" pageWidth="850" pageHeight="1100" math="0" shadow="0">
      <root>
        <mxCell id="0" />
        <mxCell id="1" parent="0" />
        <mxCell id="kqxzfw_xi5819Ef0oG8I-1" value="quote" style="rounded=0;whiteSpace=wrap;html=1;" parent="1" vertex="1">
          <mxGeometry x="268.75" y="355" width="80" height="30" as="geometry" />
        </mxCell>
        <mxCell id="kqxzfw_xi5819Ef0oG8I-2" value="&lt;u&gt;id&lt;/u&gt;" style="ellipse;whiteSpace=wrap;html=1;" parent="1" vertex="1">
          <mxGeometry x="181.25" y="280" width="50" height="20" as="geometry" />
        </mxCell>
        <mxCell id="kqxzfw_xi5819Ef0oG8I-3" value="author" style="ellipse;whiteSpace=wrap;html=1;" parent="1" vertex="1">
          <mxGeometry x="176.25" y="405" width="50" height="20" as="geometry" />
        </mxCell>
        <mxCell id="kqxzfw_xi5819Ef0oG8I-4" value="qoute" style="ellipse;whiteSpace=wrap;html=1;" parent="1" vertex="1">
          <mxGeometry x="171.25" y="378.75" width="60" height="20" as="geometry" />
        </mxCell>
        <mxCell id="kqxzfw_xi5819Ef0oG8I-5" value="" style="endArrow=none;html=1;rounded=0;entryX=0;entryY=0.5;entryDx=0;entryDy=0;exitX=1;exitY=0.5;exitDx=0;exitDy=0;" parent="1" source="kqxzfw_xi5819Ef0oG8I-2" target="kqxzfw_xi5819Ef0oG8I-1" edge="1">
          <mxGeometry width="50" height="50" relative="1" as="geometry">
            <mxPoint x="163.75" y="440" as="sourcePoint" />
            <mxPoint x="213.75" y="390" as="targetPoint" />
          </mxGeometry>
        </mxCell>
        <mxCell id="kqxzfw_xi5819Ef0oG8I-6" value="" style="endArrow=none;html=1;rounded=0;entryX=0;entryY=0.5;entryDx=0;entryDy=0;exitX=1;exitY=0.5;exitDx=0;exitDy=0;" parent="1" source="kqxzfw_xi5819Ef0oG8I-3" target="kqxzfw_xi5819Ef0oG8I-1" edge="1">
          <mxGeometry width="50" height="50" relative="1" as="geometry">
            <mxPoint x="163.75" y="440" as="sourcePoint" />
            <mxPoint x="213.75" y="390" as="targetPoint" />
          </mxGeometry>
        </mxCell>
        <mxCell id="kqxzfw_xi5819Ef0oG8I-7" value="" style="endArrow=none;html=1;rounded=0;entryX=0;entryY=0.5;entryDx=0;entryDy=0;exitX=1;exitY=0.5;exitDx=0;exitDy=0;" parent="1" source="kqxzfw_xi5819Ef0oG8I-4" target="kqxzfw_xi5819Ef0oG8I-1" edge="1">
          <mxGeometry width="50" height="50" relative="1" as="geometry">
            <mxPoint x="163.75" y="440" as="sourcePoint" />
            <mxPoint x="213.75" y="390" as="targetPoint" />
          </mxGeometry>
        </mxCell>
        <mxCell id="kqxzfw_xi5819Ef0oG8I-12" value="" style="endArrow=none;html=1;rounded=0;entryX=0;entryY=0.5;entryDx=0;entryDy=0;exitX=1;exitY=0.5;exitDx=0;exitDy=0;" parent="1" source="kqxzfw_xi5819Ef0oG8I-13" target="kqxzfw_xi5819Ef0oG8I-1" edge="1">
          <mxGeometry width="50" height="50" relative="1" as="geometry">
            <mxPoint x="143.75" y="450" as="sourcePoint" />
            <mxPoint x="353.75" y="390" as="targetPoint" />
          </mxGeometry>
        </mxCell>
        <mxCell id="kqxzfw_xi5819Ef0oG8I-13" value="&lt;u&gt;#id_users&lt;/u&gt;" style="ellipse;whiteSpace=wrap;html=1;" parent="1" vertex="1">
          <mxGeometry x="166.25" y="355" width="70" height="20" as="geometry" />
        </mxCell>
        <mxCell id="kqxzfw_xi5819Ef0oG8I-15" value="&lt;div&gt;Penulis&lt;/div&gt;Mengelola" style="rhombus;whiteSpace=wrap;html=1;" parent="1" vertex="1">
          <mxGeometry x="393.75" y="338.13" width="110" height="63.75" as="geometry" />
        </mxCell>
        <mxCell id="kqxzfw_xi5819Ef0oG8I-16" value="user" style="rounded=0;whiteSpace=wrap;html=1;" parent="1" vertex="1">
          <mxGeometry x="540" y="355" width="80" height="30" as="geometry" />
        </mxCell>
        <mxCell id="kqxzfw_xi5819Ef0oG8I-17" value="&lt;u&gt;id&lt;/u&gt;" style="ellipse;whiteSpace=wrap;html=1;" parent="1" vertex="1">
          <mxGeometry x="643.75" y="280" width="50" height="20" as="geometry" />
        </mxCell>
        <mxCell id="kqxzfw_xi5819Ef0oG8I-18" value="nama" style="ellipse;whiteSpace=wrap;html=1;" parent="1" vertex="1">
          <mxGeometry x="643.75" y="310" width="50" height="20" as="geometry" />
        </mxCell>
        <mxCell id="kqxzfw_xi5819Ef0oG8I-19" value="username" style="ellipse;whiteSpace=wrap;html=1;" parent="1" vertex="1">
          <mxGeometry x="643.75" y="338.13" width="73.75" height="20" as="geometry" />
        </mxCell>
        <mxCell id="kqxzfw_xi5819Ef0oG8I-20" value="password" style="ellipse;whiteSpace=wrap;html=1;" parent="1" vertex="1">
          <mxGeometry x="643.75" y="370" width="70" height="23.75" as="geometry" />
        </mxCell>
        <mxCell id="kqxzfw_xi5819Ef0oG8I-25" value="" style="endArrow=none;html=1;rounded=0;exitX=0;exitY=0.5;exitDx=0;exitDy=0;entryX=1;entryY=0.5;entryDx=0;entryDy=0;" parent="1" source="kqxzfw_xi5819Ef0oG8I-17" target="kqxzfw_xi5819Ef0oG8I-16" edge="1">
          <mxGeometry width="50" height="50" relative="1" as="geometry">
            <mxPoint x="543.75" y="460" as="sourcePoint" />
            <mxPoint x="593.75" y="410" as="targetPoint" />
          </mxGeometry>
        </mxCell>
        <mxCell id="kqxzfw_xi5819Ef0oG8I-26" value="" style="endArrow=none;html=1;rounded=0;entryX=0;entryY=0.5;entryDx=0;entryDy=0;exitX=1;exitY=0.5;exitDx=0;exitDy=0;" parent="1" source="kqxzfw_xi5819Ef0oG8I-16" target="kqxzfw_xi5819Ef0oG8I-18" edge="1">
          <mxGeometry width="50" height="50" relative="1" as="geometry">
            <mxPoint x="543.75" y="460" as="sourcePoint" />
            <mxPoint x="593.75" y="410" as="targetPoint" />
          </mxGeometry>
        </mxCell>
        <mxCell id="kqxzfw_xi5819Ef0oG8I-27" value="" style="endArrow=none;html=1;rounded=0;entryX=0;entryY=0.5;entryDx=0;entryDy=0;exitX=1;exitY=0.5;exitDx=0;exitDy=0;" parent="1" source="kqxzfw_xi5819Ef0oG8I-16" target="kqxzfw_xi5819Ef0oG8I-19" edge="1">
          <mxGeometry width="50" height="50" relative="1" as="geometry">
            <mxPoint x="543.75" y="460" as="sourcePoint" />
            <mxPoint x="593.75" y="410" as="targetPoint" />
          </mxGeometry>
        </mxCell>
        <mxCell id="kqxzfw_xi5819Ef0oG8I-28" value="" style="endArrow=none;html=1;rounded=0;entryX=0;entryY=0.5;entryDx=0;entryDy=0;exitX=1;exitY=0.5;exitDx=0;exitDy=0;" parent="1" source="kqxzfw_xi5819Ef0oG8I-16" target="kqxzfw_xi5819Ef0oG8I-20" edge="1">
          <mxGeometry width="50" height="50" relative="1" as="geometry">
            <mxPoint x="543.75" y="530" as="sourcePoint" />
            <mxPoint x="593.75" y="480" as="targetPoint" />
          </mxGeometry>
        </mxCell>
        <mxCell id="kqxzfw_xi5819Ef0oG8I-29" value="" style="endArrow=none;html=1;rounded=0;entryX=0;entryY=0.5;entryDx=0;entryDy=0;exitX=1;exitY=0.5;exitDx=0;exitDy=0;" parent="1" source="kqxzfw_xi5819Ef0oG8I-15" target="kqxzfw_xi5819Ef0oG8I-16" edge="1">
          <mxGeometry width="50" height="50" relative="1" as="geometry">
            <mxPoint x="518.75" y="530" as="sourcePoint" />
            <mxPoint x="568.75" y="480" as="targetPoint" />
          </mxGeometry>
        </mxCell>
        <mxCell id="kqxzfw_xi5819Ef0oG8I-30" value="" style="endArrow=none;html=1;rounded=0;entryX=0;entryY=0.5;entryDx=0;entryDy=0;exitX=1;exitY=0.5;exitDx=0;exitDy=0;" parent="1" source="kqxzfw_xi5819Ef0oG8I-1" target="kqxzfw_xi5819Ef0oG8I-15" edge="1">
          <mxGeometry width="50" height="50" relative="1" as="geometry">
            <mxPoint x="308.75" y="460" as="sourcePoint" />
            <mxPoint x="568.75" y="480" as="targetPoint" />
          </mxGeometry>
        </mxCell>
        <mxCell id="kqxzfw_xi5819Ef0oG8I-34" value="&lt;u&gt;#kategori_id&lt;/u&gt;" style="ellipse;whiteSpace=wrap;html=1;" parent="1" vertex="1">
          <mxGeometry x="160" y="321.25" width="82.5" height="25" as="geometry" />
        </mxCell>
        <mxCell id="kqxzfw_xi5819Ef0oG8I-35" value="" style="endArrow=none;html=1;rounded=0;exitX=1;exitY=0.5;exitDx=0;exitDy=0;entryX=0;entryY=0.5;entryDx=0;entryDy=0;" parent="1" source="kqxzfw_xi5819Ef0oG8I-34" target="kqxzfw_xi5819Ef0oG8I-1" edge="1">
          <mxGeometry width="50" height="50" relative="1" as="geometry">
            <mxPoint x="243.75" y="440" as="sourcePoint" />
            <mxPoint x="293.75" y="390" as="targetPoint" />
          </mxGeometry>
        </mxCell>
        <mxCell id="kqxzfw_xi5819Ef0oG8I-36" value="role (enum)" style="ellipse;whiteSpace=wrap;html=1;" parent="1" vertex="1">
          <mxGeometry x="645" y="405" width="72.5" height="25" as="geometry" />
        </mxCell>
        <mxCell id="kqxzfw_xi5819Ef0oG8I-37" value="" style="endArrow=none;html=1;rounded=0;entryX=0;entryY=0;entryDx=0;entryDy=0;exitX=1;exitY=0.5;exitDx=0;exitDy=0;" parent="1" source="kqxzfw_xi5819Ef0oG8I-16" target="kqxzfw_xi5819Ef0oG8I-36" edge="1">
          <mxGeometry width="50" height="50" relative="1" as="geometry">
            <mxPoint x="493.75" y="390" as="sourcePoint" />
            <mxPoint x="543.75" y="340" as="targetPoint" />
          </mxGeometry>
        </mxCell>
        <mxCell id="kqxzfw_xi5819Ef0oG8I-75" value="&lt;b&gt;One&lt;/b&gt;" style="text;html=1;align=center;verticalAlign=middle;whiteSpace=wrap;rounded=0;" parent="1" vertex="1">
          <mxGeometry x="480" y="340" width="60" height="30" as="geometry" />
        </mxCell>
        <mxCell id="kqxzfw_xi5819Ef0oG8I-76" value="&lt;b&gt;Many&lt;/b&gt;" style="text;html=1;align=center;verticalAlign=middle;whiteSpace=wrap;rounded=0;" parent="1" vertex="1">
          <mxGeometry x="343.75" y="340" width="60" height="30" as="geometry" />
        </mxCell>
        <mxCell id="iO2qTdDOsowQZia5ZUUA-1" value="status" style="ellipse;whiteSpace=wrap;html=1;" parent="1" vertex="1">
          <mxGeometry x="163.75" y="435" width="85" height="20" as="geometry" />
        </mxCell>
        <mxCell id="iO2qTdDOsowQZia5ZUUA-2" value="" style="endArrow=none;html=1;rounded=0;entryX=0;entryY=0.5;entryDx=0;entryDy=0;exitX=1;exitY=0.5;exitDx=0;exitDy=0;" parent="1" source="iO2qTdDOsowQZia5ZUUA-1" target="kqxzfw_xi5819Ef0oG8I-1" edge="1">
          <mxGeometry width="50" height="50" relative="1" as="geometry">
            <mxPoint x="68.75" y="500" as="sourcePoint" />
            <mxPoint x="118.75" y="450" as="targetPoint" />
          </mxGeometry>
        </mxCell>
        <mxCell id="xkVPOjC3tswH-z81WgGQ-1" value="kategori" style="rounded=0;whiteSpace=wrap;html=1;" parent="1" vertex="1">
          <mxGeometry x="268.75" y="230" width="80" height="30" as="geometry" />
        </mxCell>
        <mxCell id="yRkLo9J25XycwhyReZpR-1" value="&lt;u&gt;id&lt;/u&gt;" style="ellipse;whiteSpace=wrap;html=1;" parent="1" vertex="1">
          <mxGeometry x="248.75" y="190" width="50" height="20" as="geometry" />
        </mxCell>
        <mxCell id="yRkLo9J25XycwhyReZpR-2" value="" style="endArrow=none;html=1;rounded=0;entryX=0.5;entryY=1;entryDx=0;entryDy=0;exitX=0.5;exitY=0;exitDx=0;exitDy=0;" parent="1" source="xkVPOjC3tswH-z81WgGQ-1" target="yRkLo9J25XycwhyReZpR-1" edge="1">
          <mxGeometry width="50" height="50" relative="1" as="geometry">
            <mxPoint x="473.75" y="200" as="sourcePoint" />
            <mxPoint x="523.75" y="150" as="targetPoint" />
          </mxGeometry>
        </mxCell>
        <mxCell id="yRkLo9J25XycwhyReZpR-4" value="" style="endArrow=none;html=1;rounded=0;exitX=0.5;exitY=0;exitDx=0;exitDy=0;entryX=0.5;entryY=1;entryDx=0;entryDy=0;" parent="1" source="xkVPOjC3tswH-z81WgGQ-1" target="yRkLo9J25XycwhyReZpR-5" edge="1">
          <mxGeometry width="50" height="50" relative="1" as="geometry">
            <mxPoint x="473.75" y="200" as="sourcePoint" />
            <mxPoint x="523.75" y="150" as="targetPoint" />
          </mxGeometry>
        </mxCell>
        <mxCell id="yRkLo9J25XycwhyReZpR-5" value="nama" style="ellipse;whiteSpace=wrap;html=1;" parent="1" vertex="1">
          <mxGeometry x="318.75" y="190" width="50" height="20" as="geometry" />
        </mxCell>
        <mxCell id="yRkLo9J25XycwhyReZpR-13" value="Memiliki" style="rhombus;whiteSpace=wrap;html=1;" parent="1" vertex="1">
          <mxGeometry x="271.25" y="291.25" width="75" height="30" as="geometry" />
        </mxCell>
        <mxCell id="yRkLo9J25XycwhyReZpR-17" value="" style="endArrow=none;html=1;rounded=0;entryX=0.5;entryY=1;entryDx=0;entryDy=0;exitX=0.5;exitY=0;exitDx=0;exitDy=0;" parent="1" source="yRkLo9J25XycwhyReZpR-13" target="xkVPOjC3tswH-z81WgGQ-1" edge="1">
          <mxGeometry width="50" height="50" relative="1" as="geometry">
            <mxPoint x="393.75" y="190" as="sourcePoint" />
            <mxPoint x="443.75" y="140" as="targetPoint" />
          </mxGeometry>
        </mxCell>
        <mxCell id="yRkLo9J25XycwhyReZpR-21" value="&lt;b&gt;One&lt;/b&gt;" style="text;html=1;align=center;verticalAlign=middle;whiteSpace=wrap;rounded=0;" parent="1" vertex="1">
          <mxGeometry x="248.75" y="260" width="60" height="30" as="geometry" />
        </mxCell>
        <mxCell id="yRkLo9J25XycwhyReZpR-33" value="" style="endArrow=none;html=1;rounded=0;exitX=0.5;exitY=0;exitDx=0;exitDy=0;" parent="1" source="kqxzfw_xi5819Ef0oG8I-1" target="yRkLo9J25XycwhyReZpR-13" edge="1">
          <mxGeometry width="50" height="50" relative="1" as="geometry">
            <mxPoint x="288.75" y="280" as="sourcePoint" />
            <mxPoint x="288.75" y="240" as="targetPoint" />
          </mxGeometry>
        </mxCell>
        <mxCell id="EICZIc3cDc9yo0KWFbXN-3" value="&lt;b&gt;One&lt;/b&gt;" style="text;html=1;align=center;verticalAlign=middle;whiteSpace=wrap;rounded=0;" parent="1" vertex="1">
          <mxGeometry x="248.75" y="325" width="60" height="30" as="geometry" />
        </mxCell>
        <mxCell id="CtYtJSWk1EivvZtxUekK-1" value="Admin&lt;div&gt;Mengelola&lt;/div&gt;" style="rhombus;whiteSpace=wrap;html=1;" vertex="1" parent="1">
          <mxGeometry x="480" y="205" width="100" height="80" as="geometry" />
        </mxCell>
        <mxCell id="CtYtJSWk1EivvZtxUekK-2" value="" style="endArrow=none;html=1;rounded=0;entryX=0.5;entryY=0;entryDx=0;entryDy=0;exitX=1;exitY=0.5;exitDx=0;exitDy=0;" edge="1" parent="1" source="CtYtJSWk1EivvZtxUekK-1" target="kqxzfw_xi5819Ef0oG8I-16">
          <mxGeometry width="50" height="50" relative="1" as="geometry">
            <mxPoint x="400" y="460" as="sourcePoint" />
            <mxPoint x="450" y="410" as="targetPoint" />
          </mxGeometry>
        </mxCell>
        <mxCell id="CtYtJSWk1EivvZtxUekK-3" value="" style="endArrow=none;html=1;rounded=0;entryX=0;entryY=0.5;entryDx=0;entryDy=0;exitX=1;exitY=0.5;exitDx=0;exitDy=0;" edge="1" parent="1" source="xkVPOjC3tswH-z81WgGQ-1" target="CtYtJSWk1EivvZtxUekK-1">
          <mxGeometry width="50" height="50" relative="1" as="geometry">
            <mxPoint x="400" y="460" as="sourcePoint" />
            <mxPoint x="450" y="410" as="targetPoint" />
          </mxGeometry>
        </mxCell>
        <mxCell id="CtYtJSWk1EivvZtxUekK-4" value="&lt;b&gt;One&lt;/b&gt;" style="text;html=1;align=center;verticalAlign=middle;whiteSpace=wrap;rounded=0;" vertex="1" parent="1">
          <mxGeometry x="530" y="316.25" width="60" height="30" as="geometry" />
        </mxCell>
        <mxCell id="CtYtJSWk1EivvZtxUekK-6" value="&lt;b&gt;Many&lt;/b&gt;" style="text;html=1;align=center;verticalAlign=middle;whiteSpace=wrap;rounded=0;" vertex="1" parent="1">
          <mxGeometry x="360" y="220" width="60" height="30" as="geometry" />
        </mxCell>
      </root>
    </mxGraphModel>
  </diagram>
  <diagram id="eqHM1oDfNLf9MKA3_zV_" name="UI">
    <mxGraphModel dx="1426" dy="841" grid="1" gridSize="10" guides="1" tooltips="1" connect="1" arrows="1" fold="1" page="1" pageScale="1" pageWidth="850" pageHeight="1100" math="0" shadow="0">
      <root>
        <mxCell id="0" />
        <mxCell id="1" parent="0" />
        <mxCell id="YsZucLXnimJvhE20Wfvf-1" value="" style="rounded=0;whiteSpace=wrap;html=1;" vertex="1" parent="1">
          <mxGeometry x="210" y="160" width="400" height="580" as="geometry" />
        </mxCell>
        <mxCell id="YsZucLXnimJvhE20Wfvf-2" value="quote 1" style="rounded=0;whiteSpace=wrap;html=1;" vertex="1" parent="1">
          <mxGeometry x="280" y="230" width="260" height="60" as="geometry" />
        </mxCell>
        <mxCell id="YsZucLXnimJvhE20Wfvf-3" value="quote 1" style="rounded=0;whiteSpace=wrap;html=1;" vertex="1" parent="1">
          <mxGeometry x="280" y="320" width="260" height="60" as="geometry" />
        </mxCell>
        <mxCell id="YsZucLXnimJvhE20Wfvf-4" value="quote 1" style="rounded=0;whiteSpace=wrap;html=1;" vertex="1" parent="1">
          <mxGeometry x="280" y="410" width="260" height="60" as="geometry" />
        </mxCell>
      </root>
    </mxGraphModel>
  </diagram>
  <diagram id="QB83ABxo27VFfLcl_jYl" name="Page-3">
    <mxGraphModel dx="1426" dy="841" grid="1" gridSize="10" guides="1" tooltips="1" connect="1" arrows="1" fold="1" page="1" pageScale="1" pageWidth="850" pageHeight="1100" math="0" shadow="0">
      <root>
        <mxCell id="0" />
        <mxCell id="1" parent="0" />
        <mxCell id="HPpBKAhOD0unNNoL5AQD-1" value="" style="rounded=0;whiteSpace=wrap;html=1;" vertex="1" parent="1">
          <mxGeometry x="225" y="90" width="400" height="580" as="geometry" />
        </mxCell>
        <mxCell id="HPpBKAhOD0unNNoL5AQD-2" value="" style="rounded=0;whiteSpace=wrap;html=1;" vertex="1" parent="1">
          <mxGeometry x="225" y="90" width="135" height="580" as="geometry" />
        </mxCell>
        <mxCell id="HPpBKAhOD0unNNoL5AQD-3" value="Kategori" style="rounded=0;whiteSpace=wrap;html=1;" vertex="1" parent="1">
          <mxGeometry x="232.5" y="170" width="120" height="60" as="geometry" />
        </mxCell>
        <mxCell id="HPpBKAhOD0unNNoL5AQD-4" value="Qoute" style="rounded=0;whiteSpace=wrap;html=1;" vertex="1" parent="1">
          <mxGeometry x="232.5" y="250" width="120" height="60" as="geometry" />
        </mxCell>
        <mxCell id="HPpBKAhOD0unNNoL5AQD-5" value="" style="whiteSpace=wrap;html=1;aspect=fixed;" vertex="1" parent="1">
          <mxGeometry x="390" y="170" width="190" height="190" as="geometry" />
        </mxCell>
      </root>
    </mxGraphModel>
  </diagram>
</mxfile>
